<mxfile host="65bd71144e">
    <diagram id="B35pbQFRroKu2K2xF1Ri" name="Page-1">
        <mxGraphModel dx="681" dy="393" grid="1" gridSize="10" guides="1" tooltips="1" connect="1" arrows="1" fold="1" page="1" pageScale="1" pageWidth="850" pageHeight="1100" background="#2a2a2a" math="0" shadow="0">
            <root>
                <mxCell id="0"/>
                <mxCell id="1" parent="0"/>
                <mxCell id="2" value="Fluxo Search" style="text;html=1;strokeColor=none;fillColor=none;align=center;verticalAlign=middle;whiteSpace=wrap;rounded=0;fontSize=16;" parent="1" vertex="1">
                    <mxGeometry x="50" y="50" width="190" height="30" as="geometry"/>
                </mxCell>
                <mxCell id="6" value="" style="edgeStyle=none;html=1;fontSize=16;strokeWidth=2;" parent="1" source="3" target="5" edge="1">
                    <mxGeometry relative="1" as="geometry"/>
                </mxCell>
                <mxCell id="3" value="Receber e quardar informações: keyword, User, país, ip, request..." style="rounded=0;whiteSpace=wrap;html=1;fontSize=16;fillColor=#2A2A2A;" parent="1" vertex="1">
                    <mxGeometry x="120" y="160" width="230" height="70" as="geometry"/>
                </mxCell>
                <mxCell id="9" value="" style="edgeStyle=none;html=1;fontSize=16;spacing=2;strokeWidth=2;" parent="1" source="5" target="8" edge="1">
                    <mxGeometry relative="1" as="geometry"/>
                </mxCell>
                <mxCell id="10" value="Sim" style="edgeLabel;html=1;align=center;verticalAlign=middle;resizable=0;points=[];fontSize=16;" parent="9" vertex="1" connectable="0">
                    <mxGeometry x="-0.3765" relative="1" as="geometry">
                        <mxPoint x="18" as="offset"/>
                    </mxGeometry>
                </mxCell>
                <mxCell id="65" style="edgeStyle=none;shape=connector;rounded=1;html=1;labelBackgroundColor=default;fontFamily=Helvetica;fontSize=16;fontColor=default;endArrow=classic;strokeColor=default;strokeWidth=2;" parent="1" source="5" target="64" edge="1">
                    <mxGeometry relative="1" as="geometry"/>
                </mxCell>
                <mxCell id="66" value="Não" style="edgeLabel;html=1;align=center;verticalAlign=middle;resizable=0;points=[];fontSize=16;fontFamily=Helvetica;fontColor=default;" parent="65" vertex="1" connectable="0">
                    <mxGeometry x="-0.2975" y="3" relative="1" as="geometry">
                        <mxPoint x="-3" y="6" as="offset"/>
                    </mxGeometry>
                </mxCell>
                <mxCell id="5" value="Há uma Pesquisa com a keyword feita nos últimos dois dias?" style="whiteSpace=wrap;html=1;fontSize=16;rounded=0;" parent="1" vertex="1">
                    <mxGeometry x="120" y="280" width="230" height="70" as="geometry"/>
                </mxCell>
                <mxCell id="53" value="" style="edgeStyle=none;shape=connector;rounded=1;html=1;labelBackgroundColor=default;fontFamily=Helvetica;fontSize=16;fontColor=default;endArrow=classic;strokeColor=default;strokeWidth=2;" parent="1" source="8" target="52" edge="1">
                    <mxGeometry relative="1" as="geometry"/>
                </mxCell>
                <mxCell id="8" value="Retorna o mesmo resultado da Pesquisa encontrada" style="whiteSpace=wrap;html=1;fontSize=16;rounded=0;" parent="1" vertex="1">
                    <mxGeometry x="450" y="285" width="215" height="60" as="geometry"/>
                </mxCell>
                <mxCell id="18" value="" style="edgeStyle=none;shape=connector;rounded=1;html=1;labelBackgroundColor=default;fontFamily=Helvetica;fontSize=16;fontColor=default;endArrow=classic;strokeColor=default;strokeWidth=2;" parent="1" source="11" target="17" edge="1">
                    <mxGeometry relative="1" as="geometry"/>
                </mxCell>
                <mxCell id="24" value="Para cada conteúdo" style="edgeLabel;html=1;align=center;verticalAlign=middle;resizable=0;points=[];fontSize=16;fontFamily=Helvetica;fontColor=default;" parent="18" vertex="1" connectable="0">
                    <mxGeometry x="-0.4062" y="1" relative="1" as="geometry">
                        <mxPoint x="-1" y="17" as="offset"/>
                    </mxGeometry>
                </mxCell>
                <mxCell id="11" value="Obter conteúdos a partir dos provedores" style="whiteSpace=wrap;html=1;fontSize=16;rounded=0;" parent="1" vertex="1">
                    <mxGeometry x="120" y="530" width="230" height="70" as="geometry"/>
                </mxCell>
                <mxCell id="22" value="" style="edgeStyle=none;shape=connector;rounded=1;html=1;labelBackgroundColor=default;fontFamily=Helvetica;fontSize=16;fontColor=default;endArrow=classic;strokeColor=default;strokeWidth=2;" parent="1" source="17" target="21" edge="1">
                    <mxGeometry relative="1" as="geometry"/>
                </mxCell>
                <mxCell id="23" value="Sim" style="edgeLabel;html=1;align=center;verticalAlign=middle;resizable=0;points=[];fontSize=16;fontFamily=Helvetica;fontColor=default;" parent="22" vertex="1" connectable="0">
                    <mxGeometry x="0.2214" y="3" relative="1" as="geometry">
                        <mxPoint x="-9" y="3" as="offset"/>
                    </mxGeometry>
                </mxCell>
                <mxCell id="28" value="" style="edgeStyle=none;shape=connector;rounded=1;html=1;labelBackgroundColor=default;fontFamily=Helvetica;fontSize=16;fontColor=default;endArrow=classic;strokeColor=default;strokeWidth=2;" parent="1" source="17" target="27" edge="1">
                    <mxGeometry relative="1" as="geometry"/>
                </mxCell>
                <mxCell id="29" value="Não" style="edgeLabel;html=1;align=center;verticalAlign=middle;resizable=0;points=[];fontSize=16;fontFamily=Helvetica;fontColor=default;" parent="28" vertex="1" connectable="0">
                    <mxGeometry x="-0.2635" y="2" relative="1" as="geometry">
                        <mxPoint x="-2" y="4" as="offset"/>
                    </mxGeometry>
                </mxCell>
                <mxCell id="17" value="O conteúdo já existe?" style="whiteSpace=wrap;html=1;fontSize=16;rounded=0;" parent="1" vertex="1">
                    <mxGeometry x="120" y="680" width="230" height="70" as="geometry"/>
                </mxCell>
                <mxCell id="43" style="edgeStyle=none;shape=connector;rounded=1;html=1;entryX=1;entryY=0.5;entryDx=0;entryDy=0;labelBackgroundColor=default;fontFamily=Helvetica;fontSize=16;fontColor=default;endArrow=classic;strokeColor=default;strokeWidth=2;" parent="1" source="21" target="36" edge="1">
                    <mxGeometry relative="1" as="geometry">
                        <Array as="points">
                            <mxPoint x="565" y="1075"/>
                        </Array>
                    </mxGeometry>
                </mxCell>
                <mxCell id="21" value="Usar a referência (id) do conteúdo existente&amp;nbsp;" style="whiteSpace=wrap;html=1;fontSize=16;rounded=0;" parent="1" vertex="1">
                    <mxGeometry x="450" y="680" width="230" height="70" as="geometry"/>
                </mxCell>
                <mxCell id="33" value="" style="edgeStyle=none;shape=connector;rounded=1;html=1;labelBackgroundColor=default;fontFamily=Helvetica;fontSize=16;fontColor=default;endArrow=classic;strokeColor=default;strokeWidth=2;" parent="1" source="27" target="32" edge="1">
                    <mxGeometry relative="1" as="geometry"/>
                </mxCell>
                <mxCell id="27" value="Obter o dimensões da imagem do conteúdo" style="whiteSpace=wrap;html=1;fontSize=16;rounded=0;" parent="1" vertex="1">
                    <mxGeometry x="120" y="820" width="230" height="70" as="geometry"/>
                </mxCell>
                <mxCell id="37" value="" style="edgeStyle=none;html=1;strokeWidth=2;" parent="1" source="32" target="36" edge="1">
                    <mxGeometry relative="1" as="geometry"/>
                </mxCell>
                <mxCell id="32" value="Guardar conteúdo no banco de dados" style="whiteSpace=wrap;html=1;fontSize=16;rounded=0;" parent="1" vertex="1">
                    <mxGeometry x="120" y="930" width="230" height="70" as="geometry"/>
                </mxCell>
                <mxCell id="36" value="Calcular &lt;i&gt;match ratio&lt;/i&gt;&amp;nbsp;entre o título do conteúdo e a keyword" style="whiteSpace=wrap;html=1;fontSize=16;rounded=0;" parent="1" vertex="1">
                    <mxGeometry x="120" y="1040" width="230" height="70" as="geometry"/>
                </mxCell>
                <mxCell id="62" value="" style="edgeStyle=none;shape=connector;rounded=1;html=1;labelBackgroundColor=default;fontFamily=Helvetica;fontSize=16;fontColor=default;endArrow=classic;strokeColor=default;strokeWidth=2;exitX=0.5;exitY=1;exitDx=0;exitDy=0;" parent="1" source="36" target="61" edge="1">
                    <mxGeometry relative="1" as="geometry">
                        <mxPoint x="235" y="1220.0000000000002" as="sourcePoint"/>
                    </mxGeometry>
                </mxCell>
                <mxCell id="63" value="Com o conjunto de todos conteúdos" style="edgeLabel;html=1;align=center;verticalAlign=middle;resizable=0;points=[];fontSize=16;fontFamily=Helvetica;fontColor=default;rotation=0;" parent="62" vertex="1" connectable="0">
                    <mxGeometry x="-0.3787" y="1" relative="1" as="geometry">
                        <mxPoint x="-1" y="15" as="offset"/>
                    </mxGeometry>
                </mxCell>
                <mxCell id="52" value="Fim" style="ellipse;whiteSpace=wrap;html=1;fontSize=16;rounded=0;" parent="1" vertex="1">
                    <mxGeometry x="700" y="300" width="60" height="30" as="geometry"/>
                </mxCell>
                <mxCell id="60" style="edgeStyle=none;shape=connector;rounded=1;html=1;entryX=0.5;entryY=0;entryDx=0;entryDy=0;labelBackgroundColor=default;fontFamily=Helvetica;fontSize=16;fontColor=default;endArrow=classic;strokeColor=default;strokeWidth=2;" parent="1" source="58" target="3" edge="1">
                    <mxGeometry relative="1" as="geometry"/>
                </mxCell>
                <mxCell id="58" value="Ìnício" style="ellipse;whiteSpace=wrap;html=1;fontSize=16;rounded=0;" parent="1" vertex="1">
                    <mxGeometry x="205" y="100" width="60" height="30" as="geometry"/>
                </mxCell>
                <mxCell id="75" value="" style="edgeStyle=none;shape=connector;rounded=1;html=1;labelBackgroundColor=default;fontFamily=Helvetica;fontSize=16;fontColor=default;endArrow=classic;strokeColor=default;strokeWidth=2;" parent="1" source="61" target="74" edge="1">
                    <mxGeometry relative="1" as="geometry"/>
                </mxCell>
                <mxCell id="61" value="Registrar data e hora do fim da Pesquisa" style="whiteSpace=wrap;html=1;fontSize=16;rounded=0;" parent="1" vertex="1">
                    <mxGeometry x="120" y="1190" width="230" height="70" as="geometry"/>
                </mxCell>
                <mxCell id="69" style="edgeStyle=none;shape=connector;rounded=1;html=1;entryX=0.5;entryY=0;entryDx=0;entryDy=0;labelBackgroundColor=default;fontFamily=Helvetica;fontSize=16;fontColor=default;endArrow=classic;strokeColor=default;strokeWidth=2;" parent="1" source="64" target="11" edge="1">
                    <mxGeometry relative="1" as="geometry"/>
                </mxCell>
                <mxCell id="64" value="Registrar data e hora do início da nova Pesquisa" style="whiteSpace=wrap;html=1;fontSize=16;rounded=0;" parent="1" vertex="1">
                    <mxGeometry x="120" y="420" width="230" height="70" as="geometry"/>
                </mxCell>
                <mxCell id="77" value="" style="edgeStyle=none;shape=connector;rounded=1;html=1;labelBackgroundColor=default;fontFamily=Helvetica;fontSize=16;fontColor=default;endArrow=classic;strokeColor=default;strokeWidth=2;" parent="1" source="74" target="76" edge="1">
                    <mxGeometry relative="1" as="geometry"/>
                </mxCell>
                <mxCell id="74" value="Montar a Pesquisa a partir dos Resultados, Conteúdos, início, fim" style="whiteSpace=wrap;html=1;fontSize=16;rounded=0;" parent="1" vertex="1">
                    <mxGeometry x="120" y="1300" width="230" height="70" as="geometry"/>
                </mxCell>
                <mxCell id="79" value="" style="edgeStyle=none;shape=connector;rounded=1;html=1;labelBackgroundColor=default;fontFamily=Helvetica;fontSize=16;fontColor=default;endArrow=classic;strokeColor=default;strokeWidth=2;" parent="1" source="76" target="78" edge="1">
                    <mxGeometry relative="1" as="geometry"/>
                </mxCell>
                <mxCell id="76" value="Salvar Pesquisa no banco de dados" style="whiteSpace=wrap;html=1;fontSize=16;rounded=0;" parent="1" vertex="1">
                    <mxGeometry x="120" y="1410" width="230" height="70" as="geometry"/>
                </mxCell>
                <mxCell id="83" style="edgeStyle=none;shape=connector;rounded=1;html=1;entryX=0.5;entryY=0;entryDx=0;entryDy=0;labelBackgroundColor=default;fontFamily=Helvetica;fontSize=16;fontColor=default;endArrow=classic;strokeColor=default;strokeWidth=2;" parent="1" source="78" target="82" edge="1">
                    <mxGeometry relative="1" as="geometry"/>
                </mxCell>
                <mxCell id="78" value="Retornar a Pesquisa" style="whiteSpace=wrap;html=1;fontSize=16;rounded=0;" parent="1" vertex="1">
                    <mxGeometry x="120" y="1520" width="230" height="70" as="geometry"/>
                </mxCell>
                <mxCell id="82" value="Fim" style="ellipse;whiteSpace=wrap;html=1;fontSize=16;rounded=0;" parent="1" vertex="1">
                    <mxGeometry x="205" y="1620" width="60" height="30" as="geometry"/>
                </mxCell>
            </root>
        </mxGraphModel>
    </diagram>
</mxfile>